<svg xmlns="http://www.w3.org/2000/svg" viewBox="0 0 500 500"><defs><clipPath id="a"><path d="M211.18 151.51c12.06 16.26 37 19 61.56 21.42s49.07 0 52.43-8.34c-1.89 17.68-7.63 44-62.54 35.06-60.57-9.88-51.45-48.14-51.45-48.14z" fill="none"/></clipPath><clipPath id="b"><path d="M246.27 92.62c-2.15 6.24-10 12.39-20.28 13.12-5.83-2.43-19.24-24.72-17.28-37.41S235.8 38.86 240.84 38c4.6-.81-15.34 19.68-14.35 30.56s19.78 24.06 19.78 24.06z" fill="none"/></clipPath><clipPath id="c"><path d="M305.75 105.76c-.24 5.4 3.9 12.45 11.55 16.1 5.18-.1 22.11-13.11 24.42-23.39s-9.8-27.4-15.42-32.83c-3-2.91 5.81 19.63 1.79 27.65s-22.34 12.47-22.34 12.47z" fill="none"/></clipPath></defs><path fill="#ebebeb" d="M0 382.4H500V382.65H0z"/><path fill="#ebebeb" d="M52.46 391.92H85.58V392.17H52.46z"/><path fill="#ebebeb" d="M171.14 389.21H213.67V389.46H171.14z"/><path fill="#ebebeb" d="M93.47 395.43H112.66V395.68H93.47z"/><path fill="#ebebeb" d="M434.67 399.53H449.90000000000003V399.78H434.67z"/><path fill="#ebebeb" d="M391.47 399.53H425.76000000000005V399.78H391.47z"/><path fill="#ebebeb" d="M308 392.33H331.83V392.58H308z"/><path d="M237 337.8H43.91a5.71 5.71 0 0 1-5.7-5.71V60.66a5.71 5.71 0 0 1 5.7-5.66H237a5.71 5.71 0 0 1 5.71 5.71v271.38a5.71 5.71 0 0 1-5.71 5.71zM43.91 55.2a5.46 5.46 0 0 0-5.45 5.46v271.43a5.46 5.46 0 0 0 5.45 5.46H237a5.47 5.47 0 0 0 5.46-5.46V60.66A5.47 5.47 0 0 0 237 55.2zm409.4 282.6h-193.1a5.72 5.72 0 0 1-5.71-5.71V60.66a5.72 5.72 0 0 1 5.71-5.66h193.1a5.71 5.71 0 0 1 5.69 5.66v271.43a5.71 5.71 0 0 1-5.69 5.71zM260.21 55.2a5.47 5.47 0 0 0-5.46 5.46v271.43a5.47 5.47 0 0 0 5.46 5.46h193.1a5.47 5.47 0 0 0 5.46-5.46V60.66a5.47 5.47 0 0 0-5.46-5.46z" fill="#ebebeb"/><path d="M103.14 142.1s4.27-4.57 10.33-4.78c4.23-3.93 12.1-3.26 13.82-.67 6.21-4.13 13.09-5.46 19.23 2.31-.84-8.56-10.24-26.37-39.36-11.48-2.63-2.39-3.45-3.17-3.45-3.17s-1.18-3.43-1.95-3.59 0 3.79 0 3.79a5.56 5.56 0 0 0-4.36.91s-.87-3.92-1.52-3.48-.36 4.08-.36 4.08-.44 1-1.9 4.28c-32.63-2-34.15 18-31.5 26.23 2.53-9.57 9.36-11.1 16.71-9.79.55-3.06 7.49-6.82 12.94-4.9 5.64-2.23 11.37.26 11.37.26zm42.96-46.78a11.09 11.09 0 0 1 7.7-.2c3.69-1.31 8.4 1.22 8.78 3.29 5-.91 9.6.11 11.34 6.59 1.77-5.55.7-19.15-21.4-17.69-1-2.2-1.3-2.9-1.3-2.9s.18-2.45-.25-2.76S150 84 150 84a4.29 4.29 0 0 0-1.41-.61 4.14 4.14 0 0 0-1.54 0s.51-2.68 0-2.57-1.32 2.44-1.32 2.44-.55.52-2.33 2.15c-19.75-10-26.08 2.07-26.62 7.87 4.13-5.27 8.79-4.39 13-1.61 1.16-1.75 6.49-2.23 9.36.42a11.14 11.14 0 0 1 6.96 3.23zm265.67 68.77a11.11 11.11 0 0 1 7.7-.21c3.68-1.31 8.4 1.22 8.77 3.29 5-.9 9.61.12 11.34 6.59 1.78-5.54.7-19.14-21.4-17.68-1-2.2-1.29-2.9-1.29-2.9s.18-2.46-.26-2.76-1 2.36-1 2.36a3.83 3.83 0 0 0-3-.61s.51-2.67 0-2.56-1.31 2.43-1.31 2.43-.56.53-2.33 2.16c-19.76-10-26.08 2.07-26.63 7.87 4.14-5.28 8.8-4.4 13-1.61 1.16-1.76 6.49-2.23 9.36.42a11.12 11.12 0 0 1 7.05 3.21zM75.81 74.69a5 5 0 0 1 3.3-1.1c1.42-1 3.8-.58 4.23.27 2-1 4.17-1.22 5.77 1.35 0-2.63-2.22-8.37-11.58-4.83-.72-.81-.94-1.08-.94-1.08s-.25-1.08-.48-1.16-.11 1.15-.11 1.15a1.78 1.78 0 0 0-1.36.13s-.13-1.22-.34-1.1-.3 1.22-.3 1.22-.17.3-.73 1.24c-9.86-1.73-11 4.33-10.47 6.91 1.09-2.82 3.22-3.06 5.41-2.41.27-.91 2.52-1.82 4.11-1a5 5 0 0 1 3.49.41zm318.25 12.8c-9.46 8.58-26.52 15.69-30.45-2.47a104.7 104.7 0 0 0 13.27 2.21c-.43 1.71 1.77 4.61 5.27 4.44 3.06-.15 4.87-2.3 3.43-3.9a75.86 75.86 0 0 0 8.48-.28zm8.68-1.9a76.8 76.8 0 0 0 7.81-3.29c-.61 2 1.91 3.24 4.75 2.1 3.27-1.32 4-4.88 2.94-6.25a105.55 105.55 0 0 0 11.12-7.55c4.03 18.14-14.44 18.82-26.62 14.99z" fill="#e6e6e6"/><path d="M356.55 99.07l-1.69 6.45c-3-4.08-4.68-8.15-4.78-11.43a22 22 0 0 0 6.47 4.98zm11.03 4.02l-8.13 7.58a40.42 40.42 0 0 1-3.82-4.15l1.82-7a41.86 41.86 0 0 0 10.13 3.57zm7.42 1.09l7 18.51a50 50 0 0 1-21.76-11.34l8.59-8a60.3 60.3 0 0 0 6.17.83zm18.34-.75l-9.2 19.75-1-.21-7-18.71a81 81 0 0 0 17.2-.83zm4.52-.77l14 19.33-.58.15a61.18 61.18 0 0 1-26.11 1.24l9.37-20.13c1.08-.17 2.18-.36 3.32-.59zm19.75-5.75l-4.85 24.61-13.82-19.07c1.34-.26 2.73-.56 4.14-.89a88.63 88.63 0 0 0 14.53-4.65zm2.5-1.11l17.35 11.53c-5.14 6.07-12.91 11-23.67 14.12l4.93-25c.47-.22.93-.45 1.39-.65zM433 87.22l6.84 16.91c-.55.82-1.13 1.63-1.76 2.42l-16.92-11.26A47.59 47.59 0 0 0 433 87.22zm8.65-21.54a62.29 62.29 0 0 1 2 6.23l-1.8-.54a13.47 13.47 0 0 0-.2-5.69zm3.54 14.65l-7.8 1.85a25.8 25.8 0 0 0 4.28-9.82l2.26.69a50.25 50.25 0 0 1 1.26 7.28zm-4.68 22.76l-6.72-16.63a34.68 34.68 0 0 0 2.68-3l8.81-2.09c.6 7.88-.87 15.3-4.77 21.72z" fill="#ebebeb"/><g><ellipse cx="250" cy="416.24" rx="193.89" ry="11.32" fill="#f5f5f5"/></g><g><path d="M208 407.63l-15.8 1.17-.44-5.84 14.25-1-.44-6-14.25 1-.35-4.7 15.36-1.13-.46-6.33-24.55 1.81 1.62 22.39h25.12zm29.6-4.06a12.88 12.88 0 0 0-1.42-1.75 9.53 9.53 0 0 0-1.58-1.45 9.34 9.34 0 0 0-2.47-.92 11 11 0 0 0 3.13-1.41 8.09 8.09 0 0 0 2.68-3.11 8.22 8.22 0 0 0 .74-4.34 8.14 8.14 0 0 0-1.68-4.69 6.85 6.85 0 0 0-3.82-2.43 21.92 21.92 0 0 0-6.54-.26l-15.26 1.13 1.82 24.7h9.25l-.58-7.77.81-.06a4 4 0 0 1 2.3.52 7.26 7.26 0 0 1 1.83 2.16l3.29 5.15H241zm-8.52-9.81a2.38 2.38 0 0 1-1.41 1 13.77 13.77 0 0 1-2.4.59l-3.86.28-.45-6 4-.29a5.5 5.5 0 0 1 3.47.52 2.73 2.73 0 0 1 1.08 2.13 2.78 2.78 0 0 1-.43 1.77zm40.72 7.43a11 11 0 0 0-1.42-1.74 8.37 8.37 0 0 0-1.58-1.45 9.11 9.11 0 0 0-2.46-.92 10.9 10.9 0 0 0 3.12-1.41 7.92 7.92 0 0 0 3.43-7.45 8.17 8.17 0 0 0-1.74-4.7 7 7 0 0 0-3.81-2.43 22 22 0 0 0-6.54-.25L243.53 382l2 27.07h9.24l-.77-10.18.81-.05a3.76 3.76 0 0 1 2.29.52 6.86 6.86 0 0 1 1.83 2.16l4.81 7.52h10.84zm-8.51-9.8a2.45 2.45 0 0 1-1.42 1 14.63 14.63 0 0 1-2.39.58l-3.87.29-.44-6 4-.31a5.53 5.53 0 0 1 3.47.52 2.7 2.7 0 0 1 1.07 2.14 2.73 2.73 0 0 1-.42 1.78zm58.62-.53q-.53-7.16-4.83-10.83c-2.85-2.45-6.76-3.5-11.69-3.14s-8.47 2-11 4.88-3.57 6.76-3.21 11.6a16.84 16.84 0 0 0 2.67 8.5 12.53 12.53 0 0 0 5.71 4.66 18.81 18.81 0 0 0 8.41 1 16.78 16.78 0 0 0 8.11-2.46 12.49 12.49 0 0 0 4.67-5.55 18.25 18.25 0 0 0 1.16-8.66zm-10.28 7.57a6.34 6.34 0 0 1-9.11.63c-1.2-1.22-1.92-3.34-2.14-6.33s.18-5.22 1.2-6.61a5.55 5.55 0 0 1 4.3-2.29 5.79 5.79 0 0 1 4.73 1.6c1.21 1.2 1.93 3.19 2.14 6 .25 3.3-.14 5.64-1.12 7zm42.11-3.59a9.12 9.12 0 0 0 .57-9.07 6.87 6.87 0 0 0-3.34-3 21.93 21.93 0 0 0-6.41-1.37l-15.22-1.5-2.9 29.1h9.28l1.06-10.72.8.08a3.86 3.86 0 0 1 2.17.92 6.7 6.7 0 0 1 1.43 2.44l3.06 7.28h10l-2.28-5.75a11.32 11.32 0 0 0-1.1-2 8.79 8.79 0 0 0-1.3-1.7 9 9 0 0 0-2.28-1.33 11.11 11.11 0 0 0 3.33-.86 8.22 8.22 0 0 0 3.13-2.52zm-7.74-4.32a2.73 2.73 0 0 1-.74 1.65 2.5 2.5 0 0 1-1.58.79 12.63 12.63 0 0 1-2.46.15l-3.85-.37.59-6 4 .39a5.56 5.56 0 0 1 3.33 1.1 2.79 2.79 0 0 1 .71 2.29z" fill="#3B82F6"/><g opacity="0.5"><path d="M208 407.63l-15.8 1.17-.44-5.84 14.25-1-.44-6-14.25 1-.35-4.7 15.36-1.13-.46-6.33-24.55 1.81 1.62 22.39h25.12zm29.6-4.06a12.88 12.88 0 0 0-1.42-1.75 9.53 9.53 0 0 0-1.58-1.45 9.34 9.34 0 0 0-2.47-.92 11 11 0 0 0 3.13-1.41 8.09 8.09 0 0 0 2.68-3.11 8.22 8.22 0 0 0 .74-4.34 8.14 8.14 0 0 0-1.68-4.69 6.85 6.85 0 0 0-3.82-2.43 21.92 21.92 0 0 0-6.54-.26l-15.26 1.13 1.82 24.7h9.25l-.58-7.77.81-.06a4 4 0 0 1 2.3.52 7.26 7.26 0 0 1 1.83 2.16l3.29 5.15H241zm-8.52-9.81a2.38 2.38 0 0 1-1.41 1 13.77 13.77 0 0 1-2.4.59l-3.86.28-.45-6 4-.29a5.5 5.5 0 0 1 3.47.52 2.73 2.73 0 0 1 1.08 2.13 2.78 2.78 0 0 1-.43 1.77zm40.72 7.43a11 11 0 0 0-1.42-1.74 8.37 8.37 0 0 0-1.58-1.45 9.11 9.11 0 0 0-2.46-.92 10.9 10.9 0 0 0 3.12-1.41 7.92 7.92 0 0 0 3.43-7.45 8.17 8.17 0 0 0-1.74-4.7 7 7 0 0 0-3.81-2.43 22 22 0 0 0-6.54-.25L243.53 382l2 27.07h9.24l-.77-10.18.81-.05a3.76 3.76 0 0 1 2.29.52 6.86 6.86 0 0 1 1.83 2.16l4.81 7.52h10.84zm-8.51-9.8a2.45 2.45 0 0 1-1.42 1 14.63 14.63 0 0 1-2.39.58l-3.87.29-.44-6 4-.31a5.53 5.53 0 0 1 3.47.52 2.7 2.7 0 0 1 1.07 2.14 2.73 2.73 0 0 1-.42 1.78zm58.62-.53q-.53-7.16-4.83-10.83c-2.85-2.45-6.76-3.5-11.69-3.14s-8.47 2-11 4.88-3.57 6.76-3.21 11.6a16.84 16.84 0 0 0 2.67 8.5 12.53 12.53 0 0 0 5.71 4.66 18.81 18.81 0 0 0 8.41 1 16.78 16.78 0 0 0 8.11-2.46 12.49 12.49 0 0 0 4.67-5.55 18.25 18.25 0 0 0 1.16-8.66zm-10.28 7.57a6.34 6.34 0 0 1-9.11.63c-1.2-1.22-1.92-3.34-2.14-6.33s.18-5.22 1.2-6.61a5.55 5.55 0 0 1 4.3-2.29 5.79 5.79 0 0 1 4.73 1.6c1.21 1.2 1.93 3.19 2.14 6 .25 3.3-.14 5.64-1.12 7zm42.11-3.59a9.12 9.12 0 0 0 .57-9.07 6.87 6.87 0 0 0-3.34-3 21.93 21.93 0 0 0-6.41-1.37l-15.22-1.5-2.9 29.1h9.28l1.06-10.72.8.08a3.86 3.86 0 0 1 2.17.92 6.7 6.7 0 0 1 1.43 2.44l3.06 7.28h10l-2.28-5.75a11.32 11.32 0 0 0-1.1-2 8.79 8.79 0 0 0-1.3-1.7 9 9 0 0 0-2.28-1.33 11.11 11.11 0 0 0 3.33-.86 8.22 8.22 0 0 0 3.13-2.52zm-7.74-4.32a2.73 2.73 0 0 1-.74 1.65 2.5 2.5 0 0 1-1.58.79 12.63 12.63 0 0 1-2.46.15l-3.85-.37.59-6 4 .39a5.56 5.56 0 0 1 3.33 1.1 2.79 2.79 0 0 1 .71 2.29z" fill="#fff"/></g></g><g><path d="M307.28 336.74c2 2.67 3.31 9.1 0 9.87s-2-9.7-2-9.7c-.92-.91-.16-3.11 2-.17zm-7.36 54.74c2.11 1.48 4.7 5.88 2.42 7.28s-3.89-6.64-3.89-6.64c-.86-.44-.85-2.26 1.47-.64zm-38.55 1.83c-.14 2.57-2.5 7.1-4.9 5.9s3.58-6.81 3.58-6.81c-.05-.97 1.47-1.92 1.32.91z" fill="#3B82F6"/><path d="M306.23 332.45c3.36.46 7.65 4.11 4.19 7.2s-6.43-5.54-6.43-5.54c-1.36.01-1.46-2.17 2.24-1.66z" fill="#3B82F6"/><path d="M306.19 335.81c3.09 17.23-6.51 36.58-3.69 55.14.77 5.11-7.39-.26-7.39-.26s-19-1.85-24.1.13c-.88 4.79-14.38 8-15.19-1.19s-1.57-32-1.57-32 37.61-25.93 51.94-21.82z" fill="#3B82F6"/><path d="M260.78 353.36c-4 2.52-6.53 4.26-6.53 4.26s.22 6.65.55 14.21c8.78-5.35 16.26-14 16.26-14a41 41 0 0 0-10.28-4.47z" opacity="0.2"/><path d="M259.93 391.74c-.7 9.15-9.2 22.16-6.14 26s53.28 3.52 60 0-15.31-18-14.95-30.12c-38.2-9.95-38.91 4.12-38.91 4.12z" fill="#3B82F6"/><path d="M260.13 414.32c-4.49-4.49-12.25.11-13.43 5.51 8.92 1.87 15.07-.82 15.07-.82a6.28 6.28 0 0 0-1.64-4.69zm48.77-1.16c4.48-4.49 12.25.12 13.42 5.51-8.91 1.88-15.07-.82-15.07-.82a6.26 6.26 0 0 1 1.65-4.69z" fill="#263238"/><path d="M298.12 414.18c4.24-5.38 11.58.14 12.69 6.61-8.42 2.25-14.24-1-14.24-1a9 9 0 0 1 1.55-5.61z" fill="#263238"/><path d="M288.36 413.49c9.87-1.4 11.46 3 7.69 8.57-10.53.18-12.15-2.25-12.15-2.25s-2.51-5.32 4.46-6.32z" fill="#263238"/><path d="M166.61 304.41c-3.21.82-8.34 4.92-6.23 7.65s7.71-6.21 7.71-6.21c1.23-.14 2.05-2.33-1.48-1.44zm-25.41 44.65c-2.51.6-6.54 3.73-4.93 5.88s6.06-4.75 6.06-4.75c.96-.09 1.67-1.79-1.13-1.13zm31.93 24.67c-1.66 2-3 6.89-.46 7.65s2-7.42 2-7.42c.76-.65.33-2.4-1.54-.23zm25.75-23.55c-1.89 1.76-3.87 6.46-1.41 7.54s2.95-7.1 2.95-7.1c.8-.56.58-2.36-1.54-.44z" fill="#3B82F6"/><path d="M170.15 301.77c-2.89-1.78-8.52-1.69-7.82 2.89s8.49-.19 8.49-.19c1.05.87 2.51-.75-.67-2.7z" fill="#3B82F6"/><path d="M180.44 293.78c-13.36 11.32-25.31 40.36-39.3 52.88-3.85 3.45 5.86 4.5 5.86 4.5s18.13 8.36 20.81 13.14c-2.38 4.25 6 15.31 12.47 8.76s21.6-23.68 21.6-23.68-7.78-49.64-21.44-55.6z" fill="#3B82F6"/><path d="M114.68 380.11c-3.69-5.16-12.11-1.88-14.15 3.25 8.49 3.3 15 1.65 15 1.65a6.28 6.28 0 0 0-.85-4.9z" fill="#263238"/><path d="M174.58 373.09c-6 7-1.64 31.81-6.24 33.6s-78.34-11.76-51.75-30.3c6.2-4.32 20.36-16.11 24.49-27.48 39.16 4.79 33.5 24.18 33.5 24.18z" fill="#3B82F6"/><path d="M165.91 400.54c5.55 3.09 3.26 11.82-1.6 14.43-4.26-8.05-3.36-14.71-3.36-14.71a6.28 6.28 0 0 1 4.96.28zm-45.24-14.42c-3.88-7.8-13.84-2.54-16.69 3.14 6.13 6.2 15.19 2.5 15.19 2.5s2.83-2.99 1.5-5.64z" fill="#263238"/><path d="M128.7 390.62c-8.17-5.7-15.09.89-14.22 7.56 9.31 4.9 15.36.08 15.36.08s4.64-3.61-1.14-7.64z" fill="#263238"/><path d="M232.42 363.48c51.31 8.81 86.59-23.88 125.3-103.77 21.54-44.46-4.65-75-19-80.72 6.51-14.35-.06-36.42-9.5-45.89 3.54 3 9.07-.11 9.07-.11-7-3.81-16.4-38.27-58.31-46.42-38.23-7.43-57.48 13.93-71.43 21.76 0 0 3.1 5.65 9.49 5.68-12.05 5.78-23.24 21.71-24.25 40.1-15.45.56-46.85 20.39-44.86 69.75 3.57 88.7 32.18 130.81 83.49 139.62z" fill="#3B82F6"/><path d="M218.7 142.68c13.39-1.79 26.73 2.07 33 7.7-13.17-5.44-33-7.7-33-7.7zm62.23 17.19c11.47-2.4 23.26.09 29.08 4.55-11.78-3.85-29.08-4.55-29.08-4.55z" opacity="0.1"/><path d="M234.38 150.38c5.12-2.71 10.84-2.21 14.86 1.3a93.81 93.81 0 0 0-14.86-1.3z" opacity="0.1"/><path d="M148.87 222.61c9.3-10.85 16.9-25.88 18.31-35.17a64.39 64.39 0 0 0-13.4 2.31c-3.35 9.01-5.29 19.9-4.91 32.86zm216.82-.88a67.69 67.69 0 0 0-10.37-4.55c-.9 8.09 1.57 21.53 6.26 33.36a68.44 68.44 0 0 0 4.11-28.81z" opacity="0.2"/><path d="M221.53 151.53c-2.26-4.65-6.42-7.63-10.94-7.48-3.29.11-12.63.53-5.8 16.18 7.57 17.35 26.39 11.09 16.74-8.7zm101.62 7.3c3.86-1.71 7.28-1 8.74 2.22 1.06 2.32 4 9-8.69 15.27-14.08 6.97-16.47-10.22-.05-17.49z" opacity="0.1"/><path d="M261.69 144.6a12 12 0 0 1-3.1 4.29 3.8 3.8 0 0 1-4.83.17 45.73 45.73 0 0 0-19.84-8 3.84 3.84 0 0 1-2.85-5.49c7.93-15.32 36.74-5.57 30.62 9.03z" fill="#fff"/><path d="M249.65 134.76c4.84-5.83 14.29 1.6 11 7.24-3.78 6.38-16.98 0-11-7.24z" fill="#263238"/><path d="M306.24 158.84a116.12 116.12 0 0 0-25.34-1 7.47 7.47 0 0 1-7-3.65A15.89 15.89 0 0 1 272 149c-3.44-20.75 36.72-24.49 42.23-2.39a26.31 26.31 0 0 1 .72 4.24 7.53 7.53 0 0 1-8.71 7.99z" fill="#fff"/><path d="M286.13 143.15c-2.34-3.33-8.79-.12-6.88 3.12s9.98 1.27 6.88-3.12zm-74.95 8.36c12.06 16.26 37 19 61.56 21.42s49.07 0 52.43-8.34c-1.89 17.68-7.63 44-62.54 35.06-60.57-9.88-51.45-48.14-51.45-48.14z" fill="#263238"/><g clip-path="url(#a)"><path d="M206.25 183.3c14.24-8.17 35.45-9.34 58.3 4.5 13.29-4.44 41.14-7.72 50.18 17.91-59.34 12.98-108.48-22.41-108.48-22.41z" fill="#3B82F6" opacity="0.5"/><path d="M266.8 171.05c-1.3 4.77-6.92 8.32-11.47 7.19a8.8 8.8 0 0 1-7-9.17zM243.92 168c-1.9 4-7.85 5.85-11.25 4.55-4.48-1.72-4.73-9.19-4.73-9.19zm-16.53-6.4c-2.48 2.55-7.26 2.83-9.73.53a6.34 6.34 0 0 1-1.21-8.23zm44.9 10.3c.45 4.41 4.95 7.29 9.09 8 3.76.68 7.52-7.09 7.52-7.09zm22.01-.08c.86 3.45 3.62 6.19 5.61 5.56 3.35-1.07 2.63-6.26 2.63-6.26zm14.45-.9a4.91 4.91 0 0 0 5.76 2.85 4.18 4.18 0 0 0 2.86-4.67zM257.22 202c1.26-4.78 6.86-8.38 11.42-7.28a8.79 8.79 0 0 1 7.06 9.12zm26.78 2.33c.13-4.43 4.86-8.5 8.49-8.67 4.79-.21 8 6.53 8 6.53zm20.45-4.71c-.12-4.78 1.71-9.22 3.73-9 3.4.34 4.11 7.35 4.11 7.35zm-57.02-.72c1-5.53-2.42-10.29-6.23-12.33-3.48-1.86-9.78 6.65-9.78 6.65zm-21.69-11.7c1.29-3.31.63-7.14-1.37-7.77-3.35-1.07-5.76 3.59-5.76 3.59z" fill="#fff"/><path d="M220.61 183.1a4.91 4.91 0 0 0-.84-6.37 4.18 4.18 0 0 0-5.47.21z" fill="#fff"/></g><path d="M203.11 127.3c-5.77 7.78-10.8 13.82-13.39 15 5.41 2.61 8.84.5 8.84.5s10.87-24.02 4.55-15.5zm91.56-36.37C287.46 85 270 86.82 258.35 75.39c-2.07 5.64 2.46 9.73 2.46 9.73s42.06 12.54 33.86 5.81z" fill="#3B82F6"/><path d="M295.1 91c-4.4-5.7-15.46-3.45-22.52-14.55a12.44 12.44 0 0 0 1.3 9.65S300.1 97.46 295.1 91zM104.91 191.53c-8.62 3.53-15.33 19.74-30.91 24.57 4 4.5 9.73 2.46 9.73 2.46s31-31.05 21.18-27.03zm-19.54 79.09c0 20.88 12.1 21.45 11.63 37.77 5.54-2.31 7.1-9 7.1-9S85.38 260 85.37 270.62zm330.3-40.37c5.52 7.51 10.36 20.58 22.28 37.83-5.17 3.06-10-3.86-10-3.86s-18.57-42.52-12.28-33.97z" fill="#3B82F6"/><path d="M105.75 190c-6.77 2.44-17.71 20.09-30.83 21a12.42 12.42 0 0 0 9.08 3.51s17.17-7.97 21.75-24.51zm21.69 50.22c5.87 4.17 4 15.31 15.4 21.94a12.39 12.39 0 0 1-9.69-.92s-12.4-25.77-5.71-21.02z" fill="#3B82F6"/><path d="M246.27 92.62c-2.15 6.24-10 12.39-20.28 13.12-5.83-2.43-19.24-24.72-17.28-37.41S235.8 38.86 240.84 38c4.6-.81-15.34 19.68-14.35 30.56s19.78 24.06 19.78 24.06zm59.48 13.14c-.24 5.4 3.9 12.45 11.55 16.1 5.18-.1 22.11-13.11 24.42-23.39s-9.8-27.4-15.42-32.83c-3-2.91 5.81 19.63 1.79 27.65s-22.34 12.47-22.34 12.47z" fill="#263238"/><g clip-path="url(#b)"><path d="M218.49 104.14a1.5 1.5 0 0 1-1-.37 2.06 2.06 0 0 1-.65-1.36 6.67 6.67 0 0 1 2.39-5.71 20.26 20.26 0 0 1 4.44-2.86l.77-.4a57.63 57.63 0 0 0 10.89-7.57c1.42-1.25 2.75-2.64 3-4.37a.9.9 0 0 0-.08-.64 1.11 1.11 0 0 0-.77-.25c-4.91-.36-9.6 2.4-13.13 4.85-.64.44-1.27.89-1.9 1.34-3.34 2.37-6.78 4.82-10.78 5.89a7.42 7.42 0 0 1-4.31.11 3.75 3.75 0 0 1-2.72-3.37c0-1.59 1.16-3 3.45-4.17a60.89 60.89 0 0 1 8.25-3.26c1.28-.43 2.55-.85 3.81-1.32 3.41-1.26 7.71-3.16 10.66-6.65.6-.71 1.24-1.74.89-2.6a2.22 2.22 0 0 0-1-1c-1.53-.94-3.56-1.17-6.2-.71a22.42 22.42 0 0 0-11 5.27c-.57.5-1.11 1-1.66 1.56a18.59 18.59 0 0 1-4.57 3.6c-2.53 1.25-6.19 1-7.68-1.47-1.25-2.1-.38-4.78 1.13-6.35a12.39 12.39 0 0 1 5.82-3c2.56-.71 5.22-1.17 7.8-1.63a52.33 52.33 0 0 0 12.06-3.12 11.93 11.93 0 0 0 3.6-2.25 1.45 1.45 0 0 0 .5-.79.6.6 0 0 0-.15-.49 3 3 0 0 0-1.94-.62c-5.77-.1-11.62-.11-17.37 0-2.16.05-3.53-.72-3.65-2-.07-.86.45-1.67 1.6-2.46a21.8 21.8 0 0 1 11.38-3.83 43 43 0 0 1 7.62.58 34.81 34.81 0 0 0 8.82.46 3 3 0 0 0 2.18-1c.67-1-.22-2.5-1.39-3.4-2.33-1.78-5.14-2.57-8.11-3.4a40.21 40.21 0 0 1-5.49-1.8 2.86 2.86 0 0 1-1.63-1.74 1.16 1.16 0 0 1 .29-1.05 2 2 0 0 1 1-.5 20.88 20.88 0 0 1 14.54 2c2.21 1.21 3.43 2.71 3.51 4.34a.4.4 0 0 1-.38.42.39.39 0 0 1-.41-.38c-.09-1.7-1.73-2.94-3.1-3.68a20 20 0 0 0-14-1.88 1.22 1.22 0 0 0-.62.26.35.35 0 0 0-.1.35 2.17 2.17 0 0 0 1.18 1.18 40.09 40.09 0 0 0 5.39 1.8c2.91.81 5.92 1.66 8.37 3.53 1.5 1.14 2.52 3 1.57 4.47a3.68 3.68 0 0 1-2.75 1.3 36.27 36.27 0 0 1-9-.46 41.62 41.62 0 0 0-7.48-.58 21.1 21.1 0 0 0-11 3.69c-.9.62-1.31 1.19-1.26 1.74.12 1.27 2.4 1.29 2.85 1.3 5.76-.09 11.61-.08 17.39 0a3.58 3.58 0 0 1 2.52.89 1.35 1.35 0 0 1 .35 1.1 2.17 2.17 0 0 1-.74 1.27 12.75 12.75 0 0 1-3.84 2.41 52.82 52.82 0 0 1-12.23 3.17c-2.56.45-5.21.92-7.73 1.61a11.75 11.75 0 0 0-5.46 2.77c-1.27 1.32-2.06 3.65-1 5.4 1.26 2.12 4.43 2.25 6.65 1.16a18.31 18.31 0 0 0 4.44-3.47c.55-.54 1.11-1.08 1.69-1.58A23.14 23.14 0 0 1 224.39 69c2.85-.49 5.06-.23 6.75.81a2.94 2.94 0 0 1 1.29 1.37c.4 1 0 2.15-1 3.41-3.08 3.63-7.49 5.59-11 6.88-1.26.47-2.54.9-3.82 1.33a59.3 59.3 0 0 0-8.21 3.2c-2 1-3 2.2-3 3.47a3 3 0 0 0 2.18 2.62 6.72 6.72 0 0 0 3.85-.12c3.87-1 7.25-3.45 10.53-5.77.63-.46 1.27-.91 1.91-1.35 3.64-2.52 8.48-5.37 13.64-5a1.76 1.76 0 0 1 1.33.56 1.59 1.59 0 0 1 .25 1.21c-.23 2-1.68 3.52-3.21 4.87a58.07 58.07 0 0 1-11 7.68l-.77.4a19.57 19.57 0 0 0-4.27 2.74 5.88 5.88 0 0 0-2.15 5 1.39 1.39 0 0 0 .38.88c.61.51 1.71-.25 2.15-.59l2.29-1.82a140.51 140.51 0 0 1 15.28-11.05c7.14-4.24 14.07-6.55 20.61-6.85a.4.4 0 0 1 .41.38.39.39 0 0 1-.38.41c-6.4.3-13.21 2.56-20.24 6.74a141.85 141.85 0 0 0-15.19 11l-2.29 1.82a3.68 3.68 0 0 1-2.22.91z" fill="#fff" opacity="0.30000000000000004"/></g><g clip-path="url(#c)"><path d="M327.57 123.71a3.46 3.46 0 0 1-2.06-1.11l-.24-.21a27.19 27.19 0 0 0-3.14-2.13c-3.72-2.29-8.36-5.14-11.12-13-2-5.74-9.42-8-15.94-9.92l-2.07-.59a.41.41 0 0 1-.26-.5.4.4 0 0 1 .5-.26l2 .62c6.71 2 14.31 4.3 16.47 10.42 2.67 7.56 7.17 10.33 10.78 12.55a27.28 27.28 0 0 1 3.24 2.2l.25.22c.58.51 1.24 1.08 1.79.88a1.09 1.09 0 0 0 .52-.57c.58-1.25.21-2.94-1-4.52a20.26 20.26 0 0 0-3.52-3.32l-.66-.53a59.86 59.86 0 0 1-9-9.07c-1.19-1.5-2.26-3.13-2.05-4.84a1.3 1.3 0 0 1 .54-1 1.93 1.93 0 0 1 1.4-.11c5.05 1 9.09 4.58 12.06 7.56.52.52 1 1 1.55 1.58 2.66 2.74 5.4 5.57 8.92 7.41a8.11 8.11 0 0 0 3.7 1.11c1.11 0 2.37-.53 2.64-1.5.33-1.23-1-2.59-2.17-3.51a66.08 66.08 0 0 0-7.23-4.73c-1.14-.68-2.28-1.36-3.4-2.07-3.1-2-6.94-4.68-9.12-8.42-1-1.68-.66-2.63-.22-3.13a2.78 2.78 0 0 1 1.56-.79 11.08 11.08 0 0 1 6.71 1.11 25.28 25.28 0 0 1 9.8 7.36c.45.56.86 1.14 1.28 1.72a17.68 17.68 0 0 0 3.48 3.93c1.92 1.48 5.08 2.16 6.71.81 1.34-1.12 1.1-3.11.16-4.5a12.78 12.78 0 0 0-4.68-3.67c-2.29-1.21-4.74-2.28-7.12-3.3a61.56 61.56 0 0 1-11.12-5.74 13.52 13.52 0 0 1-3.17-2.94 1.86 1.86 0 0 1-.45-1.28 1.11 1.11 0 0 1 .49-.8 3.73 3.73 0 0 1 2.73-.14c5.58 1.41 11.23 2.92 16.8 4.49 1.31.37 2.75.44 3-.26.15-.39-.13-.94-.83-1.65a23.94 23.94 0 0 0-9.81-5.83 51.3 51.3 0 0 0-7.27-1.48 43.48 43.48 0 0 1-8.8-2 4 4 0 0 1-2.36-1.77 1.75 1.75 0 0 1 0-1.45 4.19 4.19 0 0 1 2.51-1.88c2.78-.88 5.86-.78 8.85-.69a45.43 45.43 0 0 0 5.6-.05 2 2 0 0 0 1.37-.62.17.17 0 0 0 0-.2 1.4 1.4 0 0 0-.55-.38 23.56 23.56 0 0 0-13.95-2.12c-1.47.25-3.32.82-3.75 2.13a.4.4 0 0 1-.5.25.4.4 0 0 1-.25-.5c.44-1.34 1.95-2.26 4.37-2.66a24.36 24.36 0 0 1 14.43 2.19 1.94 1.94 0 0 1 .86.66 1 1 0 0 1 .08 1 2.59 2.59 0 0 1-2 1.07 45.16 45.16 0 0 1-5.7.06c-3-.1-5.93-.19-8.58.64a3.36 3.36 0 0 0-2 1.46.93.93 0 0 0 0 .8 3.36 3.36 0 0 0 1.91 1.35 43.33 43.33 0 0 0 8.64 1.92 51.2 51.2 0 0 1 7.47 1.5 24.91 24.91 0 0 1 10.14 6c.35.36 1.42 1.43 1 2.5s-1.89 1.32-4 .74c-5.56-1.57-11.2-3.08-16.77-4.5a3.08 3.08 0 0 0-2.09 0 .3.3 0 0 0-.16.24 1.19 1.19 0 0 0 .31.71 12.57 12.57 0 0 0 3 2.76 60.58 60.58 0 0 0 11 5.66c2.38 1 4.85 2.1 7.17 3.34a13.44 13.44 0 0 1 5 3.92c1.13 1.68 1.39 4.13-.32 5.55-2 1.64-5.54.87-7.7-.79a18.47 18.47 0 0 1-3.63-4.1c-.41-.57-.82-1.14-1.26-1.69a24.47 24.47 0 0 0-9.49-7.12 10.41 10.41 0 0 0-6.18-1 2.05 2.05 0 0 0-1.13.54c-.49.56-.1 1.51.31 2.21 2.09 3.59 5.83 6.24 8.85 8.15 1.12.71 2.25 1.38 3.39 2.06a66.59 66.59 0 0 1 7.31 4.79c2 1.56 2.8 3 2.44 4.34a3.37 3.37 0 0 1-3.4 2.08 8.74 8.74 0 0 1-4.07-1.2c-3.63-1.9-6.42-4.78-9.12-7.56-.51-.53-1-1-1.54-1.57-2.89-2.9-6.82-6.36-11.66-7.35a1.4 1.4 0 0 0-.81 0c-.1.06-.16.19-.18.41-.18 1.42.8 2.88 1.88 4.24a59.26 59.26 0 0 0 8.89 9l.65.53a21.06 21.06 0 0 1 3.66 3.45c1.39 1.82 1.78 3.81 1.07 5.34a1.75 1.75 0 0 1-1 1 1.63 1.63 0 0 1-.64.06z" fill="#fff" opacity="0.30000000000000004"/></g><path d="M236.42 127.22c24.08 9.28 26.42 15.85 28.81 13.27s1.17-13.7-4.43-18.25-8-2.27-6.48-.47c-8.08-5.88-17.21-6.68-20-5.77s.44 2.9.44 2.9-16.84 1.18 1.66 8.32zm74.31 14.46c-32.93-.53-38.29 4.71-40.22 1.38s3.78-13.25 12.34-15.36 10.67 1 8.09 2c12.09-2.41 23.55.33 26.66 2.26s-1.64 2.55-1.64 2.55 20.04 7.57-5.23 7.17z" fill="#263238"/><path d="M244.81 92.43c-1.32-3-1.21-9.6 2.24-9.61s-.21 9.9-.21 9.9c.65 1.07-.58 3.05-2.03-.29zm-49.73 65.15c-2.91-1.61-6.82-6.87-4.09-9s5.87 8 5.87 8c1.14.42 1.4 2.76-1.78 1z" fill="#3B82F6"/><path d="M245.28 94.48c-3-1.34-7.41-6.23-4.88-8.58s6.6 7.41 6.6 7.41c1.17.34 1.61 2.69-1.72 1.17zm62.26 13.04c4.47-1.22 11.52-7.08 8.51-10.84s-10.6 8.88-10.6 8.88c-1.73.22-2.82 3.3 2.09 1.96z" fill="#3B82F6"/><path d="M259.54 208c49.49 7.38 66.27 30.67 62.89 49.88-2.71 15.48-9.33 4.25-9.33 4.25s2 36.55-19.17 55c-6.74 5.85-5.46-2.78-5.46-2.78s-20.84 36.1-46.27 32.65c-37.18-5.08-38.72-43.73-38.72-43.73s-7.2 10.89-13.1-4.76c-6.51-17.24-6.65-40 1.7-57-11.73 7.13-14.15-45.72 67.46-33.51z" fill="#fff" opacity="0.1"/><path d="M261.38 211.57c-38.27-7.06-56.43 3.91-58.74 17.06-1.86 10.59 5.81 5 5.81 5s-10.61 23 .41 39.89c3.5 5.36 4.71-.49 4.71-.49s6.32 28.23 25.9 32.06c28.64 5.61 36.72-19.63 36.72-19.63s4.73 11.3 12.67 1 13.71-27.8 13.81-37.18c6.87 7.33 21.82-26.06-41.29-37.71z" fill="#fff" opacity="0.1"/><path d="M193.58 198.62c-.23.47-.43.55-.63.55h-.59l-1.17-.06h-2.37l-2.37.11c-.8.06-1.59.16-2.39.22a61.61 61.61 0 0 0-9.63 1.9 82.63 82.63 0 0 0-19.26 8.41A114.74 114.74 0 0 0 137 223.12a140.12 140.12 0 0 0-16.11 16.82l4.88-14.05.74 5.67.94 5.49c.4 1.76.76 3.54 1.19 5.25s.86 3.38 1.41 4.91a44.5 44.5 0 0 0 3.46 8.28 16.26 16.26 0 0 0 .93 1.53 4 4 0 0 0 .45.62 5 5 0 0 0 .42.52l.37.37c.11.09.19.08.26.14s0-.05 0-.08a.22.22 0 0 0 0-.15 3 3 0 0 0-.21-.4l-.34-.48-.2-.25-.4-.45-.46-.48A27.75 27.75 0 1 1 95 295.51l-.59-.63-.54-.6-.46-.57c-.29-.35-.64-.79-.87-1.1-.41-.56-.81-1.13-1.2-1.7s-.63-1-.94-1.5-.63-1-.85-1.43c-.47-.89-1-1.81-1.4-2.67L87 282.79c-.38-.84-.66-1.6-1-2.41s-.64-1.61-.88-2.36c-.5-1.52-1.07-3.1-1.44-4.56a98.59 98.59 0 0 1-3.2-16.93c-.35-2.74-.44-5.34-.62-8s-.13-5.17-.17-7.74.11-5.05.21-7.54l.49-7.38.23-3.48a17 17 0 0 1 4.65-10.58A186.36 186.36 0 0 1 106.19 189a161.22 161.22 0 0 1 25.29-19 124.65 124.65 0 0 1 30.32-13.35 108 108 0 0 1 17-3.4c1.46-.14 2.91-.31 4.37-.41s2.93-.18 4.4-.23 3 0 4.43 0l2.21.08h1.11a1.26 1.26 0 0 1 1.07.61 33.76 33.76 0 0 1 2.67 34.2zm143.36-20.44a1 1 0 0 1 1-.31l.9.23 1.81.47 3.62 1c2.4.72 4.8 1.48 7.18 2.32a145.24 145.24 0 0 1 14.11 5.79 128 128 0 0 1 26.28 16.53 120.3 120.3 0 0 1 21.61 23A118.72 118.72 0 0 1 428.2 255l.29.79a21 21 0 0 1 .4 13.29 63.42 63.42 0 0 1-2.69 9.16 73.83 73.83 0 0 1-3.67 8.07c-1.34 2.51-2.77 4.87-4.26 7.12s-3 4.35-4.63 6.37a117 117 0 0 1-10 11.12c-1.75 1.71-3.53 3.37-5.39 5-.93.81-1.87 1.61-2.87 2.41l-1.53 1.23-.84.63c-.35.26-.5.39-1.15.82a27.75 27.75 0 0 1-28.75-47.48c-.24.18 0 .06.07.05s.23-.08.37-.15l.85-.38c.6-.27 1.22-.59 1.84-.91 1.24-.65 2.49-1.35 3.7-2.08a73.32 73.32 0 0 0 6.8-4.61c1-.8 2-1.59 2.87-2.37s1.67-1.55 2.39-2.28 1.3-1.42 1.84-2l1.28-1.64.69 14.08a76 76 0 0 0-9.51-17.07 74.59 74.59 0 0 0-13.52-14 85.51 85.51 0 0 0-17-10.51 95.47 95.47 0 0 0-9.56-3.87c-1.64-.58-3.31-1.1-5-1.59l-2.54-.71-1.29-.33-.64-.16c-.22-.06-.41-.2-.51-.71l-1.38-6.76a40 40 0 0 1 12.08-37.35z" fill="#3B82F6"/><path d="M191.83 160.84c-.43 2-3.55 3.13-7 2.41s-5.84-3-5.41-5 3.55-3.13 7-2.41 5.84 2.95 5.41 5zm-13.66 4.01c0 1.36-1.94 2.38-4.21 2.29s-4.06-1.28-4-2.64 1.94-2.38 4.21-2.29 4.06 1.28 4 2.64zm116.01-70.06c-.7.74-2.6.07-4.25-1.49s-2.43-3.42-1.73-4.16 2.6-.06 4.25 1.5 2.42 3.42 1.73 4.15zm-26.78 26.78c-1.52.49-3.4-1.18-4.21-3.72s-.22-5 1.3-5.46 3.4 1.18 4.21 3.72.22 4.98-1.3 5.46zm-7.77-7.57c-.93.47-2.31-.39-3.1-1.93s-.68-3.17.25-3.64 2.3.39 3.09 1.93.68 3.19-.24 3.64zM130.4 257.38c-1.19.66-3.05-.41-4.15-2.39s-1-4.13.15-4.79 3 .4 4.15 2.39 1.04 4.13-.15 4.79zm-8.9-7.38c-.86.14-1.74-.91-2-2.34s.28-2.69 1.14-2.83 1.73.91 2 2.33-.29 2.69-1.14 2.84zm-13.45-57.95c-.67-.55-.46-1.9.46-3s2.22-1.57 2.88-1 .46 1.91-.46 3-2.21 1.55-2.88 1zM98 288.88c-2.25 1.07-5.52-1.1-7.3-4.85s-1.42-7.65.83-8.72 5.51 1.1 7.3 4.85 1.44 7.65-.83 8.72zm85.17-68.09c-1.28-1.53-.72-4.12 1.26-5.78s4.62-1.77 5.91-.24.72 4.12-1.25 5.78-4.63 1.77-5.92.24zM184 210c-.19-1.19.9-2.36 2.44-2.6s2.94.52 3.13 1.71-.9 2.36-2.44 2.6-2.97-.49-3.13-1.71zm13.3 2.43a1.71 1.71 0 1 1 1.9-.9 1.5 1.5 0 0 1-1.9.9zm220.79 65.66c.91 1.17.45 3.75-1 5.76s-3.37 2.7-4.28 1.53-.45-3.74 1-5.75 3.38-2.7 4.28-1.54zm-.78 8.11c.67.62.59 2.33-.18 3.83s-1.95 2.21-2.62 1.59-.6-2.33.18-3.83 1.95-2.21 2.62-1.59zm-269.17 65.41c.72 1.29-.1 3.77-1.84 5.55s-3.74 2.18-4.46.89.1-3.77 1.84-5.55 3.73-2.17 4.46-.89zm-1.96 7.91c.58.71.25 2.39-.74 3.76s-2.25 1.9-2.83 1.19-.24-2.39.74-3.76 2.26-1.9 2.83-1.19zM391 316.63c0 1.42-2 3.17-4.48 3.91s-4.56.19-4.59-1.22 2-3.17 4.48-3.91 4.51-.19 4.59 1.22zm-96.3 66.97c1.37.37 2.49 2.78 2.5 5.39s-1.09 4.44-2.46 4.07-2.49-2.78-2.5-5.39 1.09-4.44 2.46-4.07zm24.57-158.21c1.61-.66 4 .6 5.43 2.82s1.22 4.56-.38 5.22-4.05-.6-5.44-2.82-1.22-4.56.39-5.22zm-31.5 169.39c2.42-.08 5.69 2.72 7.3 6.26s1 6.47-1.45 6.56-5.69-2.72-7.31-6.26-.96-6.47 1.46-6.56zM425.31 271c.4.47.17 2-.49 3.38s-1.52 2.12-1.92 1.65-.16-2 .5-3.38 1.52-2.09 1.91-1.65zm-57.98-77.44c1.13-1 4-.5 6.43 1.05s3.46 3.61 2.33 4.58-4 .51-6.43-1.05-3.46-3.6-2.33-4.58z" opacity="0.1"/><path d="M157 332.27l-47.7 1.67-.8-21.79 45.59-59.07 22.82-.8L179 310.9l11.83-.41.75 20.56-11.82.41.65 17.83-22.82.8zm-.76-20.56l-1.1-30L131 312.59z" fill="#fff"/><path d="M157.63 350.59a.5.5 0 0 1-.5-.48l-.64-17.33-47.19 1.66a.51.51 0 0 1-.52-.48l-.8-21.79a.48.48 0 0 1 .1-.33l45.6-59.06a.51.51 0 0 1 .37-.2l22.82-.8a.51.51 0 0 1 .52.48l2.13 58.13 11.33-.4a.5.5 0 0 1 .52.48l.75 20.56a.49.49 0 0 1-.13.36.52.52 0 0 1-.35.16l-11.33.4.64 17.32a.47.47 0 0 1-.14.36.46.46 0 0 1-.34.16l-22.82.8zm-.63-18.82a.5.5 0 0 1 .49.48l.64 17.33 21.82-.77-.63-17.33a.49.49 0 0 1 .13-.36.54.54 0 0 1 .35-.16l11.32-.39-.73-19.57-11.33.39a.5.5 0 0 1-.52-.48l-2.13-58.12-22.09.78L109 312.31l.78 21.12 47.2-1.66zm-26-18.68a.5.5 0 0 1-.45-.27.49.49 0 0 1 .05-.53l24.11-30.91a.5.5 0 0 1 .89.29l1.1 30a.49.49 0 0 1-.13.36.57.57 0 0 1-.35.16l-25.2.88zm23.65-30l-22.6 29 23.63-.84z" fill="#3B82F6"/><path d="M198.68 300.51q-1-27.19 8.28-38.4T236 250.2q9.51-.33 15.71 1.83a28.92 28.92 0 0 1 10.19 5.83 33.26 33.26 0 0 1 6.37 7.79 41.94 41.94 0 0 1 3.92 9.67 92.33 92.33 0 0 1 3.45 22.16q1 25.95-7.28 38.3t-29.45 13.09q-11.9.4-19.36-3.17a31.25 31.25 0 0 1-12.43-10.83q-3.61-5.14-5.84-14.23a100.29 100.29 0 0 1-2.6-20.13zm26-.85q.67 18.22 4.09 24.78t9.47 6.34a9.6 9.6 0 0 0 6.81-3.07q2.82-2.94 4-9.1t.68-19.11q-.69-19-4.12-25.43t-9.78-6.2q-6.5.22-9.14 7t-2.04 24.79z" fill="#fff"/><path d="M236.53 349.41c-6.89 0-12.65-1.09-17.17-3.26a32 32 0 0 1-12.63-11c-2.42-3.46-4.41-8.3-5.9-14.39a100.55 100.55 0 0 1-2.65-20.23c-.67-18.18 2.16-31.21 8.39-38.74s16.16-11.62 29.43-12.09c6.37-.21 11.72.41 15.89 1.86a29.44 29.44 0 0 1 10.37 5.93 33.78 33.78 0 0 1 6.46 7.91 43.36 43.36 0 0 1 4 9.78 93.91 93.91 0 0 1 3.46 22.28c.64 17.33-1.84 30.32-7.36 38.6s-15.62 12.8-29.82 13.31c-.86.02-1.67.04-2.47.04zm-37.35-48.92a99.91 99.91 0 0 0 2.62 20c1.47 6 3.4 10.7 5.76 14.06a30.9 30.9 0 0 0 12.24 10.67c4.88 2.34 11.32 3.4 19.12 3.12 13.91-.49 23.68-4.82 29.05-12.87s7.83-20.89 7.21-38a92.83 92.83 0 0 0-3.44-22 41.43 41.43 0 0 0-3.88-9.56 32.23 32.23 0 0 0-6.27-7.67 28.5 28.5 0 0 0-10-5.73c-4-1.41-9.27-2-15.52-1.8-13 .46-22.65 4.4-28.71 11.72s-8.84 20.14-8.18 38.06zm38.66 30.8c-4 0-7.24-2.23-9.54-6.62s-3.7-12.83-4.15-25c-.44-12 .24-20.44 2-25s5.06-7.16 9.59-7.32 7.88 2 10.24 6.47 3.72 13 4.18 25.64c.32 8.63.08 15.1-.69 19.22s-2.17 7.34-4.11 9.35a10.1 10.1 0 0 1-7.15 3.23zm-12.69-31.65c.44 12 1.8 20.28 4 24.56s5.14 6.22 9 6.08a9.15 9.15 0 0 0 6.46-2.92c1.8-1.87 3.1-4.85 3.85-8.84s1-10.45.67-19c-.46-12.53-1.82-21-4.06-25.21s-5.25-6.08-9.32-5.94-7 2.33-8.7 6.68-2.39 12.7-1.95 24.59z" fill="#3B82F6"/><path d="M215.86 254.66l6.5 4.52a.25.25 0 0 1 .1.21l-.42 4.33v-.09l2.51 2-2.64-1.86a.11.11 0 0 1 0-.09l.14-4.35.11.22-6.78-4.1z" fill="#3B82F6"/><path d="M220.32 258.13l-1.93 2.7h-.05l-2.73 1.43 2.51-1.79-.07.07 1.43-3zm24.8 69.59l3.79 4.55v.05a.47.47 0 0 1 .05.1l1.25 5.37-2-5.14.1.15-4.46-3.8z" fill="#3B82F6"/><path fill="#3B82F6" d="M246.89 330.3L254.42 328.83 247.15 331.27 246.89 330.3z"/><path d="M332.59 326.1l-47.69 1.67-.8-21.77 45.59-59.07 22.82-.8 2.15 58.62 11.83-.41.75 20.56-11.83.41.66 17.83-22.82.8zm-.75-20.56l-1.1-30-24.1 30.9z" fill="#fff"/><path d="M333.25 344.42a.5.5 0 0 1-.5-.48l-.64-17.33-47.2 1.66a.49.49 0 0 1-.51-.48l-.8-21.8a.47.47 0 0 1 .1-.32l45.59-59.06a.51.51 0 0 1 .38-.2l22.82-.8a.5.5 0 0 1 .52.48l2.13 58.13 11.33-.4a.5.5 0 0 1 .52.48l.75 20.56a.49.49 0 0 1-.13.36.52.52 0 0 1-.35.16l-11.33.4.64 17.32a.52.52 0 0 1-.14.36.46.46 0 0 1-.35.16l-22.82.8zm-.66-18.82a.5.5 0 0 1 .5.48l.64 17.33 21.82-.77-.64-17.33a.51.51 0 0 1 .49-.52l11.32-.39-.72-19.57-11.33.4a.5.5 0 0 1-.52-.48L352 246.63l-22.09.77-45.31 58.74.78 21.11 47.2-1.65zm-25.95-18.68a.5.5 0 0 1-.4-.81l24.1-30.9a.5.5 0 0 1 .55-.17.52.52 0 0 1 .35.46l1.1 30a.53.53 0 0 1-.13.36.6.6 0 0 1-.35.16l-25.21.88zm23.65-30l-22.6 29 23.63-.83z" fill="#3B82F6"/><path d="M330.57 276.84l6-2.92-.18.36-.86-5.74a.23.23 0 0 1 .09-.23l7.48-5.22-.05.09-.39-7.34.6 7.33a.13.13 0 0 1 0 .09l-7.31 5.45.1-.24 1.05 5.71a.33.33 0 0 1-.17.34l-5.93 3.21zm-221.68 56.78l7.69-9a.32.32 0 0 1 .3-.11l5.54.87h-.15l6.1-3.4v.06l2.69-9.47-2.49 9.53a.1.1 0 0 1-.05.06l-6 3.64a.2.2 0 0 1-.15 0l-5.56-.68.3-.12-7.43 9.21z" fill="#3B82F6"/><path d="M131.5 312.72l-2.84 9.44v-.2l3 4.59h-.09l7.5.1-7.5.11a.12.12 0 0 1-.09-.05l-3.19-4.44a.22.22 0 0 1 0-.19l2.35-9.57zm206.05-45.44l-1.88-2.8h.05l-2.7-.89 2.76.69 2.47 2.27z" fill="#3B82F6"/><path d="M131.29 263.63c2-4.56 15.93-.31 19 5.34-4.77.47-11.51 4.63-16.83 3.28-3.07-.77-3.54-5.41-2.17-8.62z" fill="#263238"/><path d="M128.09 270.75c3.56-4.28 17.24 4.78 18.72 11.84-5.28-1-13.87 1.3-19.17-1.87-3.04-1.81-2.06-6.95.45-9.97zm-4.63 10.69c4.93-2.6 14.11 11 12.77 18.1-4.49-3-13.31-4.11-17-9.06-2.12-2.84.77-7.21 4.23-9.04zM114 290.6c4.39.31 4.89 13.26 1 17.47-1.78-3.86-7.23-8.3-7.64-13.16-.24-2.79 3.51-4.53 6.64-4.31zm253-11.14c0-5-14.52-6.54-19.56-2.54 4.2 2.31 8.77 8.77 14.2 9.62 3.14.46 5.36-3.54 5.36-7.08zm-1 11.48c-2.15-5.14-17.88-.5-21.37 5.82 5.35.57 12.87 5.31 18.87 3.84 3.43-.84 4-6.04 2.5-9.66z" fill="#263238"/><path d="M367.24 298.91c-3.51-4.32-17.29 4.59-18.85 11.64 5.3-1 13.86 1.44 19.19-1.67 3.07-1.78 2.14-6.88-.34-9.97zm6.05 16.33c-2.51-3.61-12.77 1.43-15.52 6.76 4.23-.45 10.83 3.25 15.21 1.12 2.52-1.23 2.09-5.34.31-7.88z" fill="#263238"/></g></svg>